<svg width="21" height="20" viewBox="0 0 21 20" fill="none" xmlns="http://www.w3.org/2000/svg">
<g id="UserPlus" clip-path="url(#clip0_1639_2905)">
<path id="Vector" d="M20.4998 10.625C20.4998 10.7908 20.4339 10.9497 20.3167 11.067C20.1995 11.1842 20.0406 11.25 19.8748 11.25H18.6248V12.5C18.6248 12.6658 18.5589 12.8247 18.4417 12.942C18.3245 13.0592 18.1656 13.125 17.9998 13.125C17.834 13.125 17.6751 13.0592 17.5579 12.942C17.4406 12.8247 17.3748 12.6658 17.3748 12.5V11.25H16.1248C15.959 11.25 15.8001 11.1842 15.6829 11.067C15.5656 10.9497 15.4998 10.7908 15.4998 10.625C15.4998 10.4593 15.5656 10.3003 15.6829 10.1831C15.8001 10.0659 15.959 10 16.1248 10H17.3748V8.75001C17.3748 8.58425 17.4406 8.42528 17.5579 8.30807C17.6751 8.19086 17.834 8.12501 17.9998 8.12501C18.1656 8.12501 18.3245 8.19086 18.4417 8.30807C18.5589 8.42528 18.6248 8.58425 18.6248 8.75001V10H19.8748C20.0406 10 20.1995 10.0659 20.3167 10.1831C20.4339 10.3003 20.4998 10.4593 20.4998 10.625ZM15.9787 15.2227C16.0854 15.3497 16.1373 15.5139 16.1229 15.6792C16.1086 15.8444 16.0292 15.9972 15.9021 16.1039C15.7751 16.2106 15.6109 16.2625 15.4457 16.2482C15.2804 16.2338 15.1276 16.1544 15.0209 16.0274C13.449 14.1555 11.2881 13.125 8.9373 13.125C6.58652 13.125 4.42558 14.1555 2.8537 16.0274C2.747 16.1543 2.59424 16.2336 2.42905 16.2479C2.26386 16.2622 2.09975 16.2102 1.97284 16.1035C1.84593 15.9968 1.76661 15.8441 1.75233 15.6789C1.73804 15.5137 1.78996 15.3496 1.89667 15.2227C3.06386 13.8336 4.51542 12.8469 6.1287 12.3188C5.14894 11.7085 4.39458 10.7958 3.97975 9.71867C3.56491 8.64153 3.51218 7.45858 3.82952 6.3488C4.14687 5.23903 4.81702 4.2628 5.7386 3.56781C6.66018 2.87282 7.78304 2.49689 8.9373 2.49689C10.0916 2.49689 11.2144 2.87282 12.136 3.56781C13.0576 4.2628 13.7277 5.23903 14.0451 6.3488C14.3624 7.45858 14.3097 8.64153 13.8948 9.71867C13.48 10.7958 12.7257 11.7085 11.7459 12.3188C13.3592 12.8469 14.8107 13.8336 15.9787 15.2227ZM8.9373 11.875C9.74078 11.875 10.5262 11.6368 11.1943 11.1904C11.8624 10.744 12.3831 10.1095 12.6906 9.36716C12.998 8.62484 13.0785 7.80801 12.9217 7.01996C12.765 6.23191 12.3781 5.50804 11.8099 4.93989C11.2418 4.37174 10.5179 3.98482 9.72985 3.82807C8.9418 3.67132 8.12497 3.75177 7.38265 4.05925C6.64032 4.36673 6.00584 4.88743 5.55945 5.55551C5.11306 6.22358 4.8748 7.00903 4.8748 7.81251C4.87604 8.88957 5.30445 9.92217 6.06605 10.6838C6.82764 11.4454 7.86024 11.8738 8.9373 11.875Z" fill="white"/>
</g>
<defs>
<clipPath id="clip0_1639_2905">
<rect width="20" height="20" fill="white" transform="translate(0.5)"/>
</clipPath>
</defs>
</svg>
